PathFileType	4	(X/Y/Z)	D:\TRACE\v60_Jaco2_6-2-23\JustBodyDRS_Motion1_8-platform.trc
DataRate	CameraRate	NumFrames	NumMarkers	Units	OrigDataRate	OrigDataStartFrame	OrigNumFrames
100.00	100.00	      24	5	mm	100.00	4196	      6712
Frame#	Time	Left_Front			Right_Front			Left_Aft			Right_Aft			Post			
		X1	Y1	Z1	X2	Y2	Z2	X3	Y3	Z3	X4	Y4	Z4	X5	Y5	Z5	

4196	41.950	-754.17920	34.29471	-632.72754	815.77081	35.51091	-638.01990	-662.06311	-10.09538	501.59061	780.02100	-11.60633	510.71558	32.70478	1344.76184	-906.78601	
4197	41.960	-754.46008	34.44270	-632.66187	815.55261	35.72061	-638.00452	-662.42218	-10.21723	501.53720	779.57971	-11.75499	510.85223	31.70100	1345.23938	-906.07306	
4198	41.970	-754.73694	34.54868	-632.64117	815.06604	35.91585	-637.97217	-663.02435	-10.47824	501.47824	778.89740	-12.08795	510.86374	31.41285	1345.35156	-905.57861	
4199	41.980	-755.16522	34.59780	-632.63470	814.75818	36.07406	-637.95624	-663.38580	-10.66215	501.59415	778.60327	-12.26808	510.86536	31.19175	1345.50562	-904.62634	
4200	41.990	-755.66675	34.78018	-632.46759	814.25342	36.36056	-637.83160	-664.18439	-10.23377	501.54840	778.39886	-12.26127	510.88916	30.87889	1345.73523	-903.47797	
4201	42.000	-756.29498	35.06892	-632.19043	813.73767	36.56519	-637.76050	-664.34198	-10.61764	501.91934	777.89215	-12.39109	511.02429	29.89586	1345.98572	-902.82526	
4202	42.010	-756.67529	35.37822	-632.20099	813.24365	36.77465	-637.78253	-664.79120	-10.83135	501.96564	777.59418	-12.53512	512.70544	29.63735	1346.24695	-902.02155	
4203	42.020	-757.03864	35.56908	-632.09918	812.74963	36.97553	-637.74719	-665.10278	-10.88338	502.04294	776.86481	-12.55905	512.22552	29.14709	1346.46704	-901.70837	
4204	42.030	-757.44458	35.62317	-632.21417	812.37079	37.07562	-637.72205	-665.67322	-11.07777	502.05206	776.47852	-12.63054	511.74567	28.63907	1346.57690	-901.32025	
4205	42.040	-758.09772	35.75261	-632.39392	811.70886	37.16864	-637.72510	-666.29639	-11.23461	502.10266	776.08557	-12.75286	511.72623	28.29871	1346.82642	-901.49585	
4206	42.050	-758.56586	35.95567	-632.24103	811.12836	37.27128	-637.60754	-666.90283	-11.34013	502.04608	775.77606	-12.69195	511.73926	27.95363	1347.05981	-901.65851	
4207	42.060	-759.34033	36.14853	-632.16345	810.74628	37.40432	-637.52460	-667.35828	-11.32339	502.10205	775.47906	-12.62626	511.72025	27.54418	1347.32837	-901.75824	
4208	42.070	-759.79358	36.40632	-631.98688	810.23792	37.67130	-637.57941	-667.59503	-11.31727	502.13272	774.55566	-12.73019	511.87726	26.91755	1347.57788	-901.73010	
4209	42.080	-760.33282	36.51572	-631.90680	809.61426	37.77967	-637.53827	-668.39758	-11.61022	502.02307	773.85767	-13.03642	511.84982	26.20229	1347.72424	-901.75214	
4210	42.090	-760.60297	36.72539	-632.02197	809.05713	37.86446	-637.44855	-669.00006	-11.77740	502.02551	773.34894	-13.05934	511.92627	25.92254	1347.85376	-901.72046	
4211	42.100	-761.17834	36.86011	-632.07367	808.45746	38.00909	-637.41931	-669.52942	-11.76457	502.08084	773.11743	-13.06668	511.94998	25.36010	1348.14124	-901.07495	
4212	42.110	-761.79248	36.91423	-632.13696	807.90704	37.97104	-637.30084	-670.18091	-11.81511	502.09851	772.76825	-13.14564	511.94186	24.48259	1348.28516	-900.46155	
4213	42.120	-762.67682	37.10020	-632.10400	807.28290	37.82533	-637.33734	-670.82245	-11.95684	502.23480	772.03729	-13.29683	512.14539	24.13290	1348.50989	-899.76581	
4214	42.130	-763.21918	37.05745	-631.76575	806.72839	37.86821	-637.21515	-671.13293	-12.16989	502.33026	771.13367	-13.28420	512.39209	23.19804	1348.67798	-898.85657	
4215	42.140	-763.60260	37.12569	-631.63184	806.10748	38.30564	-637.06342	-672.07922	-12.16045	502.49393	770.87463	-13.44345	512.18127	22.80786	1348.92944	-898.40198	
4216	42.150	-764.18103	37.57628	-631.69690	805.50018	38.44770	-637.05707	-672.56116	-12.36212	502.41425	770.49756	-13.33633	512.53632	22.11172	1349.04834	-897.96362	
4217	42.160	-764.76923	37.61951	-631.72485	805.17010	38.57552	-636.96002	-672.98309	-12.29888	502.39624	769.73083	-13.33726	512.58917	21.35166	1349.11841	-897.47278	
4218	42.170	-765.77429	37.73851	-631.64917	804.20898	38.69084	-637.05756	-673.70013	-12.35033	502.33203	769.43713	-13.09149	512.83990	20.60036	1349.28772	-897.24835	
4219	42.180	-766.55383	37.69058	-631.86304	803.40497	38.77004	-636.92804	-674.61621	-12.48003	502.25436	768.56677	-13.41521	513.15814	19.92821	1349.43091	-897.44342	
